<svg width="196" height="123" viewBox="0 0 196 123" fill="none" xmlns="http://www.w3.org/2000/svg">
<path d="M0 0H196V102C196 110.284 189.284 117 181 117H15C6.71573 117 0 110.284 0 102V0Z" fill="#162534"/>
<rect x="15" y="6" width="167" height="117" rx="15" fill="#162534" fill-opacity="0.56"/>
<path fill-rule="evenodd" clip-rule="evenodd" d="M149.711 88.2241C146.611 88.2241 144.354 85.6693 144.354 82.5559C144.354 79.4067 146.576 76.8861 149.676 76.8861C152.774 76.8861 155.031 79.4419 155.031 82.5559C155.031 85.705 152.811 88.2241 149.711 88.2241ZM149.676 89.0703C153.473 89.0703 156 85.993 156 82.5559C156 79.0815 153.51 76.0415 149.711 76.0415C145.912 76.0415 143.385 79.1177 143.385 82.5559C143.385 86.0297 145.878 89.0703 149.676 89.0703ZM133.767 88.9439H134.592L140.11 76.2571H139.124L134.197 87.8464L129.286 76.2571H128.248L133.767 88.9439ZM118.682 88.2241C115.582 88.2241 113.324 85.6693 113.324 82.5559C113.324 79.4067 115.545 76.8861 118.645 76.8861C121.745 76.8861 124.003 79.4419 124.003 82.5559C124.003 85.705 121.782 88.2241 118.682 88.2241ZM118.645 89.0703C122.444 89.0703 124.97 85.993 124.97 82.5559C124.97 79.0815 122.481 76.0415 118.682 76.0415C114.883 76.0415 112.356 79.1177 112.356 82.5559C112.356 86.0297 114.849 89.0703 118.645 89.0703ZM99.0988 88.8552H100.03V85.6515L103.148 82.484L108.31 88.8552H109.528L103.812 81.8188L109.295 76.2571H108.021L100.03 84.5352V76.2571H99.0988V88.8552ZM86.1112 88.8552H94.4058V87.9912H87.0424V76.2571H86.1112V88.8552ZM74.7531 88.2241C71.654 88.2241 69.3963 85.6693 69.3963 82.5559C69.3963 79.4067 71.617 76.8861 74.7166 76.8861C77.8167 76.8861 80.0744 79.4419 80.0744 82.5559C80.0744 85.705 77.8527 88.2241 74.7531 88.2241ZM74.7166 89.0703C78.516 89.0703 81.0426 85.993 81.0426 82.5559C81.0426 79.0815 78.552 76.0415 74.7531 76.0415C70.9547 76.0415 68.4281 79.1177 68.4281 82.5559C68.4281 86.0297 70.9192 89.0703 74.7166 89.0703ZM55.171 88.8552H56.1022V85.6515L59.2196 82.484L64.3795 88.8552H65.5984L59.8828 81.8188L65.365 76.2571H64.0928L56.1022 84.5352V76.2571H55.171V88.8552ZM46.0528 89.0351C48.4719 89.0351 50.2085 87.6303 50.2085 85.5974C50.2085 83.7252 48.9911 82.6818 46.0889 82.0879C43.1146 81.4763 42.4326 80.6653 42.4326 79.3349C42.4326 77.9851 43.652 76.9233 45.4972 76.9233C46.877 76.9233 48.0599 77.3189 49.2413 78.345L49.8335 77.6064C48.5612 76.5808 47.3606 76.0777 45.5327 76.0777C43.2034 76.0777 41.5014 77.5166 41.5014 79.3884C41.5014 81.332 42.7193 82.3581 45.7306 82.9698C48.5785 83.5458 49.2778 84.319 49.2778 85.6515C49.2778 87.1272 47.9878 88.1889 46.1061 88.1889C44.261 88.1889 42.9888 87.5946 41.6095 86.3167L41 87.0186C42.5046 88.3689 44.0458 89.0351 46.0528 89.0351Z" fill="#D7C18F"/>
<path fill-rule="evenodd" clip-rule="evenodd" d="M117.822 101H118.444V98.825L120.71 95.5239H119.994L118.141 98.2622L116.303 95.5239H115.555L117.822 98.8331V101ZM109.763 101H110.385V96.0948H112.215V95.5239H107.932V96.0948H109.763V101ZM101.532 101H105.215V100.428H102.147V95.5239H101.532V101ZM93.6836 98.9977L94.9295 96.2039L96.1672 98.9977H93.6836ZM92.1643 101H92.7951L93.4426 99.5523H96.4092L97.0466 101H97.7083L95.2248 95.4847H94.6478L92.1643 101ZM84.6665 101H88.6455V100.437H85.2815V98.5201H88.2553V97.9569H85.2815V96.0872H88.6059V95.5239H84.6665V101ZM76.9027 98.3162V96.0948H78.5855C79.4644 96.0948 79.978 96.5016 79.978 97.1739C79.978 97.8937 79.3949 98.3162 78.5774 98.3162H76.9027ZM76.2877 101H76.9027V98.8729H78.4607L80.0414 101H80.797L79.1224 98.7623C79.978 98.6053 80.6017 98.0746 80.6017 97.1663C80.6017 96.7213 80.4464 96.338 80.1805 96.0724C79.8389 95.7273 79.3015 95.5239 78.6317 95.5239H76.2877V101Z" fill="#D7C18F"/>
<path fill-rule="evenodd" clip-rule="evenodd" d="M93.5958 61.2949C92.3312 61.6889 91.0047 61.8954 89.6462 61.8954C82.0469 61.8954 76.1324 55.5237 76.1324 47.9838C76.1324 46.9454 76.2461 45.9142 76.4678 44.907L93.5958 61.2949ZM98.605 32.0296H110.034C115.36 32.0296 119.715 36.3384 119.715 41.6034C119.715 46.9301 115.295 51.1772 110.034 51.1772H109.197L120.371 61.8678H123.064V62.74H108.463V61.8678H111.607L102.937 53.5714C102.169 55.4987 101.016 57.2206 99.5784 58.6377L102.955 61.8678H105.919V62.74H89.6462C81.5998 62.74 75.29 56.0115 75.29 47.9838C75.29 46.7135 75.4478 45.4529 75.7594 44.2301L74.3055 42.8375V37.0209H76.987L98.9704 58.055C100.438 56.6105 101.562 54.856 102.274 52.9363L78.6398 30.3205C75.2108 27.0419 77.4564 20.6025 82.1022 17.2066C83.9525 15.8181 86.2274 15 88.6902 15C94.8889 15 99.9143 20.1901 99.9143 26.5923C99.9143 28.5573 99.4398 30.4087 98.605 32.0296ZM93.9242 31.762H97.8073C98.6248 30.2252 99.0892 28.462 99.0892 26.5923C99.0892 20.6891 94.4641 15.8456 88.6902 15.8456C86.4472 15.8456 84.3772 16.5776 82.6853 17.8158C80.4352 19.5254 79.4888 22.1633 82.3519 24.9026L102.77 44.4396C104.358 45.9601 105.099 48.1591 104.798 50.3244H110.034C114.809 50.3244 118.872 46.4806 118.872 41.6034C118.872 36.7258 114.809 32.8824 110.034 32.8824H98.5543V36.2156L93.9242 31.762Z" fill="#D7C18F"/>
</svg>
