<svg width="114" height="99" viewBox="0 0 114 99" fill="none" xmlns="http://www.w3.org/2000/svg">
<path d="M0 0H114V81C114 89.2843 107.284 96 99 96H15C6.71573 96 0 89.2843 0 81V0Z" fill="#162534"/>
<rect x="8" y="29" width="97" height="70" rx="15" fill="#162534" fill-opacity="0.56"/>
<path fill-rule="evenodd" clip-rule="evenodd" d="M93.4613 69.7895C91.2239 69.7895 89.5944 67.9477 89.5944 65.7031C89.5944 63.4328 91.1986 61.6156 93.4361 61.6156C95.6717 61.6156 97.3008 63.4581 97.3008 65.7031C97.3008 67.9734 95.6984 69.7895 93.4613 69.7895ZM93.4361 70.3995C96.176 70.3995 98 68.181 98 65.7031C98 63.1983 96.2031 61.0067 93.4613 61.0067C90.7192 61.0067 88.8956 63.2244 88.8956 65.7031C88.8956 68.2075 90.6942 70.3995 93.4361 70.3995ZM81.9535 70.3084H82.5487L86.5317 61.1621H85.8201L82.2637 69.5172L78.7194 61.1621H77.9704L81.9535 70.3084ZM71.0661 69.7895C68.8286 69.7895 67.1991 67.9477 67.1991 65.7031C67.1991 63.4328 68.8019 61.6156 71.0394 61.6156C73.2768 61.6156 74.9063 63.4581 74.9063 65.7031C74.9063 67.9734 73.3036 69.7895 71.0661 69.7895ZM71.0394 70.3995C73.7812 70.3995 75.6048 68.181 75.6048 65.7031C75.6048 63.1983 73.8079 61.0067 71.0661 61.0067C68.3243 61.0067 66.5007 63.2244 66.5007 65.7031C66.5007 68.2075 68.2994 70.3995 71.0394 70.3995ZM56.9322 70.2444H57.6043V67.9348L59.8546 65.6513L63.5801 70.2444H64.4595L60.3336 65.1717L64.2914 61.1621H63.3717L57.6043 67.13V61.1621H56.9322V70.2444ZM47.5585 70.2444H53.545V69.6215H48.2306V61.1621H47.5585V70.2444ZM39.3609 69.7895C37.1242 69.7895 35.4947 67.9477 35.4947 65.7031C35.4947 63.4328 37.0975 61.6156 39.3346 61.6156C41.572 61.6156 43.2015 63.4581 43.2015 65.7031C43.2015 67.9734 41.598 69.7895 39.3609 69.7895ZM39.3346 70.3995C42.0767 70.3995 43.9003 68.181 43.9003 65.7031C43.9003 63.1983 42.1028 61.0067 39.3609 61.0067C36.6195 61.0067 34.7959 63.2244 34.7959 65.7031C34.7959 68.2075 36.5939 70.3995 39.3346 70.3995ZM25.2278 70.2444H25.8998V67.9348L28.1498 65.6513L31.8739 70.2444H32.7536L28.6285 65.1717L32.5852 61.1621H31.667L25.8998 67.13V61.1621H25.2278V70.2444ZM18.6468 70.3741C20.3928 70.3741 21.6461 69.3614 21.6461 67.8958C21.6461 66.5461 20.7675 65.7938 18.6728 65.3657C16.5262 64.9248 16.0339 64.3401 16.0339 63.381C16.0339 62.4079 16.9141 61.6424 18.2458 61.6424C19.2416 61.6424 20.0954 61.9276 20.948 62.6673L21.3755 62.1348C20.4572 61.3954 19.5907 61.0327 18.2714 61.0327C16.5903 61.0327 15.3619 62.0701 15.3619 63.4195C15.3619 64.8208 16.2409 65.5605 18.4143 66.0015C20.4697 66.4167 20.9744 66.9742 20.9744 67.9348C20.9744 68.9987 20.0434 69.7641 18.6853 69.7641C17.3536 69.7641 16.4354 69.3356 15.4399 68.4144L15 68.9204C16.086 69.8938 17.1983 70.3741 18.6468 70.3741Z" fill="#D7C18F"/>
<path fill-rule="evenodd" clip-rule="evenodd" d="M70.4456 79H70.8947V77.4319L72.5297 75.0521H72.0129L70.6757 77.0262L69.3494 75.0521H68.8092L70.4456 77.4378V79ZM64.6287 79H65.0778V75.4637H66.3989V75.0521H63.3073V75.4637H64.6287V79ZM58.6884 79H61.3467V78.5877H59.1323V75.0521H58.6884V79ZM53.0238 77.5565L53.923 75.5424L54.8163 77.5565H53.0238ZM51.9273 79H52.3825L52.8499 77.9563H54.991L55.451 79H55.9286L54.1362 75.0238H53.7197L51.9273 79ZM46.5158 79H49.3876V78.5943H46.9597V77.2122H49.106V76.8061H46.9597V75.4582H49.3591V75.0521H46.5158V79ZM40.9124 77.0652V75.4637H42.1269C42.7613 75.4637 43.1319 75.757 43.1319 76.2417C43.1319 76.7606 42.7111 77.0652 42.1211 77.0652H40.9124ZM40.4685 79H40.9124V77.4665H42.0368L43.1777 79H43.7231L42.5144 77.3867C43.1319 77.2736 43.5821 76.891 43.5821 76.2362C43.5821 75.9154 43.47 75.639 43.2781 75.4476C43.0316 75.1988 42.6437 75.0521 42.1603 75.0521H40.4685V79Z" fill="#D7C18F"/>
<path fill-rule="evenodd" clip-rule="evenodd" d="M52.9605 50.3754C52.0478 50.6595 51.0904 50.8083 50.1099 50.8083C44.6252 50.8083 40.3564 46.2148 40.3564 40.779C40.3564 40.0304 40.4385 39.287 40.5985 38.5609L52.9605 50.3754ZM56.5758 29.2772H64.8247C68.6682 29.2772 71.8114 32.3835 71.8114 36.1792C71.8114 40.0194 68.6217 43.0813 64.8247 43.0813H64.2204L72.2854 50.7884H74.2287V51.4172H63.6908V50.7884H65.9601L59.7026 44.8073C59.1484 46.1968 58.3159 47.4381 57.2783 48.4597L59.7154 50.7884H61.8547V51.4172H50.1099C44.3025 51.4172 39.7484 46.5664 39.7484 40.779C39.7484 39.8632 39.8624 38.9544 40.0872 38.0729L39.0379 37.0689V32.8756H40.9732L56.8395 48.0397C57.8987 46.9982 58.7096 45.7334 59.2235 44.3494L42.1661 28.045C39.6913 25.6814 41.312 21.039 44.6651 18.5908C46.0005 17.5898 47.6424 17 49.4199 17C53.8937 17 57.5208 20.7417 57.5208 25.3573C57.5208 26.7739 57.1783 28.1086 56.5758 29.2772ZM53.1975 29.0843H56.0001C56.5901 27.9763 56.9252 26.7052 56.9252 25.3573C56.9252 21.1015 53.5872 17.6097 49.4199 17.6097C47.801 17.6097 46.307 18.1374 45.0859 19.03C43.4619 20.2625 42.7789 22.1642 44.8453 24.1391L59.5817 38.2239C60.7277 39.3201 61.2628 40.9054 61.0453 42.4665H64.8247C68.2708 42.4665 71.2034 39.6953 71.2034 36.1792C71.2034 32.6628 68.2708 29.892 64.8247 29.892H56.5392V32.2949L53.1975 29.0843Z" fill="#D7C18F"/>
</svg>
